# AST/ASF file generated using VICON BodyLanguage
# -----------------------------------------------
:version 1.10
:name VICON
:units
  mass 1.0
  length 0.45
  angle deg
:documentation
   .ast/.asf automatically generated from VICON data using
   VICON BodyBuilder and BodyLanguage model FoxedUp or BRILLIANT.MOD
:root
   order TX TY TZ RX RY RZ
   axis XYZ
   position 0 0 0  
   orientation 0 0 0 
:bonedata
  begin
     id 1 
     name lhipjoint
     direction 0.623529 -0.717805 0.309788 
     length 2.23224 
     axis 0 0 0  XYZ
  end
  begin
     id 2 
     name lfemur
     direction 0.34202 -0.939693 0  
     length 7.11402  
     axis 0 0 20  XYZ
    dof rx ry rz
    limits (-160.0 20.0)
           (-70.0 70.0)
           (-60.0 70.0)
  end
  begin
     id 3 
     name ltibia
     direction 0.34202 -0.939693 0   
     length 6.78496   
     axis 0 0 20   XYZ
    dof rx
    limits (-10.0 170.0)
  end
  begin
     id 4 
     name lfoot
     direction 0.125078 -0.343648 0.930732   
     length 1.84054   
     axis -90 7.62852e-016 20   XYZ
    dof rx rz
    limits (-45.0 90.0)
           (-70.0 20.0)
  end
  begin
     id 5 
     name ltoes
     direction 1.53565e-011 -4.21893e-011 1   
     length 0.916474   
     axis -90 7.62852e-016 20   XYZ
    dof rx
    limits (-90.0 20.0)
  end
  begin
     id 6 
     name rhipjoint
     direction -0.564688 -0.757748 0.327026   
     length 2.11457  
     axis 0 0 0  XYZ 
  end
  begin
     id 7 
     name rfemur
     direction -0.34202 -0.939693 0   
     length 7.14609   
     axis 0 0 -20   XYZ
    dof rx ry rz
    limits (-160.0 20.0)
           (-70.0 70.0)
           (-70.0 60.0)
  end
  begin
     id 8 
     name rtibia
     direction -0.34202 -0.939693 0   
     length 6.78101   
     axis 0 0 -20   XYZ
    dof rx
    limits (-10.0 170.0)
 end
 begin
     id 9 
     name rfoot
     direction -0.0992671 -0.272734 0.956955   
     length 1.96168  
     axis -90 -7.62852e-016 -20   XYZ
    dof rx rz
    limits (-45.0 90.0)
           (-20.0 70.0)
  end
  begin
     id 10 
     name rtoes
     direction -1.5356e-011 -4.21891e-011 1   
     length 0.982933   
     axis -90 -7.62852e-016 -20   XYZ
    dof rx
    limits (-90.0 20.0)
  end
  begin
     id 11 
     name lowerback
     direction -0.00596953 0.998668 0.0512524   
     length 1.87557   
     axis 0 0 0   XYZ
    dof rx ry rz
    limits (-20.0 45.0)
           (-30.0 30.0)
           (-30.0 30.0)
  end
  begin
     id 12 
     name upperback
     direction 0.00584879 0.999652 0.0257308   
     length 1.87883   
     axis 0 0 0   XYZ
    dof rx ry rz
    limits (-20.0 45.0)
           (-30.0 30.0)
           (-30.0 30.0)
  end
  begin
     id 13 
     name thorax
     direction 0.010104 0.999947 0.00178881   
     length 1.87779   
     axis 0 0 0   XYZ
    dof rx ry rz
    limits (-20.0 45.0)
           (-30.0 30.0)
           (-30.0 30.0)
  end
  begin
     id 14 
     name lowerneck
     direction 0.0120771 0.995934 -0.0892773   
     length 1.40897   
     axis 0 0 0   XYZ
    dof rx ry rz
    limits (-20.0 45.0)
           (-30.0 30.0)
           (-30.0 30.0)
  end
  begin
     id 15 
     name upperneck
     direction -0.030568 0.999465 -0.0116366   
     length 1.38661   
     axis 0 0 0   XYZ
    dof rx ry rz
    limits (-20.0 45.0)
           (-30.0 30.0)
           (-30.0 30.0)
  end
  begin
     id 16
     name head
     direction -0.0170715 0.999854 -0.00104426  
     length 1.47052  
     axis 0 0 0   XYZ
    dof rx ry rz
    limits (-20.0 45.0)
           (-30.0 30.0)
           (-30.0 30.0)
  end
  begin
     id 17 
     name lclavicle
     direction 0.977763 0.206143 0.038532  
     length 3.02424  
     axis 0 0 0   XYZ
    dof ry rz
    limits (-20.0 10.0)
           (0.0 20.0)
  end
  begin
     id 18 
     name lhumerus
     direction 1 -4.48965e-011 -2.62654e-027   
     length 4.68382   
     axis 180 -30 -90   XYZ
    dof rx ry rz
    limits (-60.0 90.0)
           (-90.0 90.0)
           (-90.0 90.0)
  end
  begin
     id 19
     name lradius
     direction 1 -4.48973e-011 -1.54954e-027   
     length 2.98124   
     axis 180 -30 -90   XYZ
    dof rx
    limits (-10.0 170.0)
  end
  begin
     id 20
     name lwrist
     direction 1 -4.48959e-011 7.20928e-028   
     length 1.49062   
     axis -5.52449e-016 90 90   XYZ
    dof ry
    limits (-180.0 0.0)
 end
  begin
     id 21 
     name lhand
     direction 1 -4.48971e-011 1.44186e-027   
     length 0.707595   
     axis -9.20027e-016 90 90   XYZ
    dof rx rz
    limits (-90.0 90.0)
           (-45.0 45.0)
  end
  begin
     id 22 
     name lfingers
     direction 1 -4.48985e-011 2.88371e-027   
     length 0.570481   
     axis -1.84005e-015 90 90   XYZ
    dof rx
    limits (0.0 90.0)
  end
  begin
     id 23
     name lthumb
     direction 0.707107 -6.34929e-011 0.707107   
     length 0.819101   
     axis -90 45 2.85299e-015   XYZ
    dof rx rz
    limits (-45.0 45.0)
           (-45.0 45.0)
  end
  begin
     id 24 
     name rclavicle
     direction -0.958661 0.284411 -0.00895327   
     length 3.11921  
     axis 0 0 0   XYZ 
    dof ry rz
    limits (-10.0 20.0)
           (-20.0 0.0)
  end
  begin
     id 25 
     name rhumerus
     direction -1 -4.48963e-011 -4.22193e-027  
     length 4.75876   
     axis 180 30 90   XYZ
    dof rx ry rz
    limits (-90.0 60.0)
           (-90.0 90.0)
           (-90.0 90.0)
  end
  begin
     id 26 
     name rradius
     direction -1 -4.48968e-011 -1.07616e-027   
     length 2.93293   
     axis 180 30 90   XYZ
    dof rx
    limits (-10.0 170.0)
  end
  begin
     id 27 
     name rwrist
     direction -1 -4.48965e-011 7.20928e-028   
     length 1.46647   
     axis -5.52449e-016 -90 -90   XYZ
    dof ry
    limits (-180.0 0.0)
  end
  begin
     id 28
     name rhand
     direction -1 -4.48971e-011 1.44186e-027   
     length 0.831748   
     axis -9.20027e-016 -90 -90   XYZ
    dof rx rz
    limits (-90.0 90.0)
           (-45.0 45.0)
  end
  begin
     id 29
     name rfingers
     direction -1 -4.48961e-011 2.88371e-027   
     length 0.670577   
     axis -1.84005e-015 -90 -90   XYZ
    dof rx
    limits (0.0 90.0)
  end
  begin
     id 30
     name rthumb
     direction -0.707107 -6.34929e-011 0.707107   
     length 0.962818   
     axis -90 -45 -2.85299e-015   XYZ
    dof rx rz
    limits (-45.0 45.0)
           (-45.0 45.0)
  end
:hierarchy
  begin
    root lhipjoint rhipjoint lowerback
    lhipjoint lfemur
    lfemur ltibia
    ltibia lfoot
    lfoot ltoes
    rhipjoint rfemur
    rfemur rtibia
    rtibia rfoot
    rfoot rtoes
    lowerback upperback
    upperback thorax
    thorax lowerneck lclavicle rclavicle
    lowerneck upperneck
    upperneck head
    lclavicle lhumerus
    lhumerus lradius
    lradius lwrist
    lwrist lhand lthumb
    lhand lfingers
    rclavicle rhumerus
    rhumerus rradius
    rradius rwrist
    rwrist rhand rthumb
    rhand rfingers
  end

#!OML:ASF E:\id_vita\Project 1\Capture day 1\Session 1\Female.ASF
:FULLY-SPECIFIED
:DEGREES
216
root -20.8042 16.4494 2.99109 -167.799 10.3406 -179.321
lowerback -15.1031 0.0261888 -2.81555
upperback -4.34803 0.905948 1.79531
thorax 3.78815 0.673251 3.66445
lowerneck 7.64628 1.45466 -2.76829
upperneck -6.86651 2.6189 8.93736
head -3.45174 1.05727 3.02915
rclavicle 1.3244e-014 7.15625e-015
rhumerus 30.9964 50.3036 -79.8594
rradius 137.803
rwrist 4.92037
rhand -39.3398 7.17171
rfingers 7.12502
rthumb -12.3313 -22.4447
lclavicle 1.3244e-014 7.15625e-015
lhumerus -29.9564 -10.0624 100.122
lradius 19.3935
lwrist -35.5625
lhand 29.0204 29.7217
lfingers 7.12502
lthumb 52.8241 49.3248
rfemur -16.0977 12.3588 17.2632
rtibia 21.928
rfoot -7.73293 -23.1668
rtoes -8.67859
lfemur -20.9326 -16.3224 -14.0312
ltibia 26.0701
lfoot -20.1245 13.2757
ltoes -7.93861
217
root -20.8069 16.4495 2.99324 -167.822 10.3131 -179.375
lowerback -15.0653 0.0158252 -2.83948
upperback -4.354 0.895252 1.76934
thorax 3.76251 0.668074 3.6476
lowerneck 7.65565 1.45512 -2.75631
upperneck -6.86727 2.61934 8.92439
head -3.45324 1.05736 3.02313
rclavicle -2.70596e-014 -1.27222e-014
rhumerus 30.8345 50.2762 -79.8992
rradius 137.83
rwrist 4.79161
rhand -39.1366 7.28803
rfingers 7.12502
rthumb -12.1354 -22.34
lclavicle -2.70596e-014 -1.27222e-014
lhumerus -29.9453 -10.0882 100.126
lradius 19.4672
lwrist -35.2859
lhand 29.2011 30.0373
lfingers 7.12502
lthumb 52.9873 49.5377
rfemur -16.0728 12.2773 17.1938
rtibia 21.9039
rfoot -7.63789 -23.1254
rtoes -8.20227
lfemur -20.9422 -16.252 -14.104
ltibia 26.0938
lfoot -19.742 12.342
ltoes -6.33825
218
root -20.8088 16.4511 2.99397 -167.768 10.3226 -179.325
lowerback -15.1306 0.0414004 -2.77896
upperback -4.35105 0.923477 1.76855
thorax 3.79944 0.682189 3.61904
lowerneck 7.52149 1.39064 -2.69773
upperneck -6.74624 2.52461 8.87448
head -3.38745 1.01652 3.00365
rclavicle 1.11816e-015 -5.96354e-015
rhumerus 30.9495 50.2918 -79.8315
rradius 137.723
rwrist 4.71526
rhand -39.1698 7.37052
rfingers 7.12502
rthumb -12.1674 -22.2556
lclavicle 1.11816e-015 -5.96354e-015
lhumerus -29.9185 -10.1438 100.137
lradius 19.4648
lwrist -35.3072
lhand 29.2611 30.1485
lfingers 7.12502
lthumb 53.0414 49.6146
rfemur -16.1257 12.1679 17.2414
rtibia 21.8887
rfoot -7.56019 -23.0141
rtoes -8.66738
lfemur -20.9933 -16.314 -14.0369
ltibia 26.1093
lfoot -19.569 11.9931
ltoes -5.08894
219
root -20.8101 16.4512 2.99361 -167.725 10.3377 -179.261
lowerback -15.1632 0.0500861 -2.76815
upperback -4.36378 0.935678 1.8178
thorax 3.8018 0.690195 3.66792
lowerneck 7.39394 1.34533 -2.62106
upperneck -6.62984 2.45028 8.76436
head -3.32451 0.986545 2.96158
rclavicle 1.03865e-014 9.93923e-015
rhumerus 31.0486 50.3565 -79.7306
rradius 137.619
rwrist 4.6026
rhand -39.2849 7.80563
rfingers 7.12502
rthumb -12.2783 -21.8139
lclavicle 1.03865e-014 9.93923e-015
lhumerus -29.8993 -10.0538 100.176
lradius 19.4384
lwrist -35.3382
lhand 29.2215 30.189
lfingers 7.12502
lthumb 53.0057 49.6778
rfemur -16.1814 12.0956 17.3071
rtibia 21.9005
rfoot -7.53156 -22.9418
rtoes -8.60462
lfemur -21.0227 -16.5953 -13.9234
ltibia 26.1064
lfoot -19.7371 12.6535
ltoes -5.81372
220
root -20.811 16.4512 2.9939 -167.761 10.324 -179.245
lowerback -15.211 0.0371188 -2.69797
upperback -4.30245 0.902788 1.78517
thorax 3.8966 0.667912 3.58964
lowerneck 7.49097 1.39852 -2.58298
upperneck -6.80823 2.54047 8.75131
head -3.39899 1.02556 2.94642
rclavicle -2.90723e-015 1.55052e-014
rhumerus 31.115 50.4042 -79.6597
rradius 137.705
rwrist 4.49057
rhand -39.3981 7.17457
rfingers 7.12502
rthumb -12.3875 -22.4384
lclavicle -2.90723e-015 1.55052e-014
lhumerus -29.8346 -10.1085 100.135
lradius 19.4652
lwrist -35.1994
lhand 29.0128 30.1998
lfingers 7.12502
lthumb 52.8172 49.8072
rfemur -16.148 12.0509 17.341
rtibia 21.9246
rfoot -7.47456 -22.9633
rtoes -8.46875
lfemur -20.977 -16.8786 -13.8695
ltibia 26.094
lfoot -20.0816 13.6646
ltoes -7.26401
221
root -20.8105 16.4508 2.99487 -167.794 10.3163 -179.267
lowerback -15.1801 0.0342489 -2.81771
upperback -4.29719 0.913546 1.8246
thorax 3.88201 0.672709 3.70088
lowerneck 7.47288 1.36951 -2.52536
upperneck -6.7908 2.49055 8.62536
head -3.38543 1.00365 2.90117
rclavicle 3.97569e-015 2.90226e-014
rhumerus 30.779 50.3624 -79.9173
rradius 137.71
rwrist 4.43187
rhand -39.3491 7.07161
rfingers 7.12502
rthumb -12.3402 -22.5442
lclavicle 3.97569e-015 2.90226e-014
lhumerus -29.8484 -10.1016 100.221
lradius 19.4121
lwrist -35.468
lhand 28.9423 30.2123
lfingers 7.12502
lthumb 52.7535 49.8595
rfemur -16.1084 12.0404 17.3352
rtibia 21.9359
rfoot -7.57835 -23.0732
rtoes -9.36812
lfemur -20.948 -16.7418 -13.9264
ltibia 26.0849
lfoot -20.225 14.1239
ltoes -8.7343
222
root -20.81 16.4489 2.99476 -167.796 10.3186 -179.3
lowerback -15.1543 0.0446532 -2.80556
upperback -4.33062 0.930746 1.74533
thorax 3.83316 0.683495 3.61182
lowerneck 7.40816 1.33115 -2.41242
upperneck -6.42006 2.41214 8.36911
head -3.60736 1.00115 3.12111
rclavicle 1.0051e-014 -3.37934e-015
rhumerus 29.9197 50.2973 -81.2131
rradius 137.405
rwrist 4.51445
rhand -39.0518 7.57499
rfingers 7.12502
rthumb -12.0536 -22.0579
lclavicle 1.0051e-014 -3.37934e-015
lhumerus -29.9072 -10.1558 100.129
lradius 19.4033
lwrist -35.4512
lhand 28.9347 30.3136
lfingers 7.12502
lthumb 52.7466 49.965
rfemur -16.1162 12.1329 17.2778
rtibia 21.9497
rfoot -7.61971 -23.0247
rtoes -8.51796
lfemur -20.957 -16.5942 -13.9879
ltibia 26.074
lfoot -20.0718 13.6924
ltoes -8.11238
223
root -20.8106 16.4493 2.99455 -167.773 10.3032 -179.305
lowerback -15.1421 0.0141889 -2.79505
upperback -4.37037 0.89369 1.73483
thorax 3.78807 0.668713 3.58716
lowerneck 7.46727 1.36714 -2.35284
upperneck -6.45431 2.46357 8.31279
head -3.63132 1.02492 3.08789
rclavicle -1.91579e-014 1.31198e-014
rhumerus 30.3683 50.4342 -80.4578
rradius 137.579
rwrist 4.46028
rhand -39.4572 7.32622
rfingers 7.12502
rthumb -12.4445 -22.2833
lclavicle -1.91579e-014 1.31198e-014
lhumerus -29.8873 -9.86497 99.9724
lradius 19.3924
lwrist -35.3748
lhand 29.1184 30.2226
lfingers 7.12502
lthumb 52.9127 49.7701
rfemur -16.1547 12.1535 17.246
rtibia 21.9557
rfoot -7.85966 -22.9412
rtoes -7.75881
lfemur -20.9804 -16.7072 -13.9606
ltibia 26.0718
lfoot -19.4837 12.3099
ltoes -2.70929
224
root -20.8109 16.4515 2.99501 -167.739 10.305 -179.33
lowerback -15.2066 -0.040443 -2.85389
upperback -4.36464 0.831492 1.76445
thorax 3.83256 0.637379 3.64262
lowerneck 7.47977 1.42543 -2.37057
upperneck -6.7681 2.57062 8.51568
head -3.38121 1.04402 2.83773
rclavicle 2.18787e-014 -2.18663e-015
rhumerus 29.9872 50.4615 -81.0534
rradius 137.403
rwrist 4.30247
rhand -39.2419 7.71718
rfingers 7.12502
rthumb -12.2369 -21.9048
lclavicle 2.18787e-014 -2.18663e-015
lhumerus -29.9053 -9.85244 99.9801
lradius 19.4057
lwrist -35.6056
lhand 28.9771 29.7154
lfingers 7.12502
lthumb 52.785 49.343
rfemur -16.1857 12.0075 17.2237
rtibia 21.9268
rfoot -8.037 -22.7698
rtoes -7.21139
lfemur -21.0275 -16.6552 -13.9865
ltibia 26.0908
lfoot -19.8843 13.0655
ltoes -6.66418
225
root -20.8109 16.4518 2.99561 -167.742 10.3468 -179.308
lowerback -15.2477 -0.0467271 -2.83209
upperback -4.33305 0.817414 1.76617
thorax 3.88941 0.627391 3.63094
lowerneck 7.47443 1.46801 -2.47114
upperneck -6.80822 2.6286 8.59592
head -3.39793 1.0717 2.87579
rclavicle -1.30452e-015 -9.14409e-015
rhumerus 30.0916 50.49 -80.9818
rradius 137.405
rwrist 4.03671
rhand -39.2804 7.78106
rfingers 7.12502
rthumb -12.274 -21.8387
lclavicle -1.30452e-015 -9.14409e-015
lhumerus -29.8241 -9.77963 99.9263
lradius 19.4617
lwrist -35.3283
lhand 29.2241 29.8913
lfingers 7.12502
lthumb 53.008 49.3786
rfemur -16.162 11.9953 17.2509
rtibia 21.8948
rfoot -7.95977 -22.7095
rtoes -7.50628
lfemur -21.0185 -16.512 -14.0038
ltibia 26.1104
lfoot -19.414 12.2421
ltoes -3.96269
226
root -20.8116 16.4513 2.99609 -167.785 10.3508 -179.263
lowerback -15.2302 0.00380762 -2.7749
upperback -4.3079 0.872504 1.73999
thorax 3.90325 0.652358 3.5805
lowerneck 7.55779 1.42686 -2.41814
upperneck -6.94813 2.58465 8.54304
head -3.44999 1.04597 2.85312
rclavicle -1.76421e-015 -4.37326e-015
rhumerus 30.1174 50.4534 -80.9227
rradius 137.375
rwrist 3.88098
rhand -39.3854 7.771
rfingers 7.12502
rthumb -12.3753 -21.8427
lclavicle -1.76421e-015 -4.37326e-015
lhumerus -29.8025 -9.81119 99.9014
lradius 19.3521
lwrist -35.6921
lhand 29.1028 29.6143
lfingers 7.12502
lthumb 52.8985 49.1707
rfemur -16.1058 12.1623 17.2947
rtibia 21.8869
rfoot -7.69547 -22.9098
rtoes -8.29324
lfemur -20.9565 -16.6747 -13.9464
ltibia 26.1185
lfoot -19.9312 13.3394
ltoes -7.0902
227
root -20.8133 16.4501 2.99656 -167.814 10.3015 -179.307
lowerback -15.2198 0.0209565 -2.86269
upperback -4.30898 0.908869 1.72194
thorax 3.89258 0.670114 3.61765
lowerneck 7.81573 1.32352 -2.13506
upperneck -7.31717 2.47433 8.25073
head -3.59084 0.981736 2.72279
rclavicle -1.61264e-014 -4.57205e-015
rhumerus 30.1366 50.3899 -80.8281
rradius 137.274
rwrist 3.76544
rhand -39.3977 7.65309
rfingers 7.12502
rthumb -12.3872 -21.9599
lclavicle -1.61264e-014 -4.57205e-015
lhumerus -29.7847 -9.86751 99.9523
lradius 19.3853
lwrist -35.4382
lhand 29.2722 29.8951
lfingers 7.12502
lthumb 53.0515 49.3548
rfemur -16.0795 12.1899 17.2462
rtibia 21.8675
rfoot -7.48939 -23.1739
rtoes -8.71754
lfemur -20.9622 -16.743 -13.9805
ltibia 26.1377
lfoot -19.4857 12.3249
ltoes -2.31179
228
root -20.8139 16.4494 2.99675 -167.801 10.3072 -179.334
lowerback -15.2237 0.0272138 -2.89568
upperback -4.33245 0.926244 1.6949
thorax 3.86845 0.680577 3.61065
lowerneck 7.57473 1.34889 -2.23802
upperneck -6.93217 2.47912 8.36829
head -3.43773 0.995224 2.77567
rclavicle -1.09953e-014 -1.15295e-014
rhumerus 30.1594 50.3781 -80.7419
rradius 137.177
rwrist 3.74548
rhand -39.3536 7.56661
rfingers 7.12502
rthumb -12.3446 -22.0489
lclavicle -1.09953e-014 -1.15295e-014
lhumerus -29.8764 -10.0646 100.013
lradius 19.4553
lwrist -35.2816
lhand 28.9813 29.9012
lfingers 7.12502
lthumb 52.7888 49.5264
rfemur -16.0967 12.048 17.224
rtibia 21.8464
rfoot -7.36616 -23.0192
rtoes -8.12781
lfemur -21.0004 -16.4304 -14.0493
ltibia 26.1565
lfoot -20.038 12.9443
ltoes -4.49938
229
root -20.8136 16.4504 2.99681 -167.771 10.3534 -179.27
lowerback -15.2395 0.0328058 -2.81779
upperback -4.34723 0.924437 1.70221
thorax 3.86265 0.68139 3.57388
lowerneck 7.45558 1.36503 -2.3648
upperneck -6.50211 2.44335 8.17057
head -3.64077 1.01723 3.04201
rclavicle 1.08959e-014 1.78906e-015
rhumerus 29.6908 50.4046 -81.1714
rradius 137.098
rwrist 3.89897
rhand -39.2025 7.52415
rfingers 7.12502
rthumb -12.1989 -22.1001
lclavicle 1.08959e-014 1.78906e-015
lhumerus -29.9245 -10.1206 100.019
lradius 19.5245
lwrist -35.1374
lhand 29.0044 30.0083
lfingers 7.12502
lthumb 52.8097 49.6205
rfemur -16.1284 12.025 17.2994
rtibia 21.8584
rfoot -7.43268 -23.0263
rtoes -9.20108
lfemur -21.0013 -16.3295 -13.9859
ltibia 26.1493
lfoot -19.5623 11.7201
ltoes -1.99245
